<svg width="19" height="19" viewBox="0 0 19 19" fill="none" xmlns="http://www.w3.org/2000/svg">
<path d="M10.0395 8.42188V6.80421L7.34373 9.50001L10.0395 12.1958V10.5781H14.9261L9.74627 15.5873L3.48548 9.50001L9.74531 3.41267L13.0621 6.63746C13.2653 6.83488 13.5403 6.94509 13.8269 6.94509C14.1134 6.94509 14.3884 6.83488 14.5916 6.63842C14.6913 6.54192 14.7706 6.42635 14.8247 6.2986C14.8789 6.17085 14.9068 6.03351 14.9068 5.89476C14.9068 5.756 14.8789 5.61867 14.8247 5.49091C14.7706 5.36316 14.6913 5.24759 14.5916 5.15109L10.511 1.18359C10.3054 0.985407 10.0309 0.874776 9.74531 0.875007C9.46034 0.874007 9.18625 0.984398 8.98152 1.18263L1.19123 8.75634C1.09105 8.85278 1.01132 8.96842 0.956823 9.09636C0.902322 9.22429 0.874162 9.3619 0.874023 9.50096C0.874023 9.77888 0.988065 10.0463 1.19027 10.2437L8.98056 17.8174C9.18277 18.0148 9.45877 18.125 9.74436 18.125C10.0319 18.125 10.3069 18.0148 10.5101 17.8174L17.6381 10.8867C17.9343 10.6059 18.124 10.2446 18.124 9.82201C18.124 9.39842 17.9343 9.03713 17.6286 8.74867C17.4273 8.55605 17.1561 8.42188 16.8734 8.42188H10.0395Z" fill="#FEFEFE"/>
</svg>
